<svg width="21" height="22" viewBox="0 0 21 22" fill="none" xmlns="http://www.w3.org/2000/svg">
<g id="dolar-de-pasta 1" clip-path="url(#clip0_14_635)">
<path id="Vector" d="M16.625 4H15.6616C15.2548 2.00587 13.4881 0.5 11.375 0.5H9.625C7.51275 0.5 5.74525 2.00587 5.33838 4H4.375C1.96263 4 0 5.96263 0 8.375V17.125C0 19.5374 1.96263 21.5 4.375 21.5H16.625C19.0374 21.5 21 19.5374 21 17.125V8.375C21 5.96263 19.0374 4 16.625 4ZM9.625 2.25H11.375C12.516 2.25 13.489 2.9815 13.8504 4H7.1505C7.51188 2.9815 8.48488 2.25 9.62588 2.25H9.625ZM19.25 17.125C19.25 18.5723 18.0723 19.75 16.625 19.75H4.375C2.92775 19.75 1.75 18.5723 1.75 17.125V8.375C1.75 6.92775 2.92775 5.75 4.375 5.75H16.625C18.0723 5.75 19.25 6.92775 19.25 8.375V17.125ZM14 14.5C14 15.9473 12.8223 17.125 11.375 17.125V18C11.375 18.4839 10.983 18.875 10.5 18.875C10.017 18.875 9.625 18.4839 9.625 18V17.125H9.3905C8.45687 17.125 7.58537 16.6227 7.11725 15.8134C6.87575 15.3942 7.01837 14.8596 7.43662 14.6181C7.85312 14.3749 8.3895 14.5193 8.63188 14.9366C8.7885 15.2079 9.079 15.375 9.3905 15.375H11.375C11.8571 15.375 12.25 14.983 12.25 14.5C12.25 14.1684 12.0129 13.8893 11.6865 13.8341L9.02562 13.3914C7.85137 13.1954 7 12.1891 7 11C7 9.55275 8.17775 8.375 9.625 8.375V7.5C9.625 7.01613 10.017 6.625 10.5 6.625C10.983 6.625 11.375 7.01613 11.375 7.5V8.375H11.6095C12.5431 8.375 13.4146 8.87725 13.8828 9.68662C14.1243 10.1058 13.9816 10.6404 13.5634 10.8819C13.146 11.1251 12.6105 10.9808 12.3681 10.5634C12.2115 10.2921 11.921 10.125 11.6095 10.125H9.625C9.14287 10.125 8.75 10.517 8.75 11C8.75 11.3316 8.98713 11.6107 9.3135 11.6659L11.9744 12.1086C13.1486 12.3046 14 13.3109 14 14.5Z" fill="#CDCDCD"/>
</g>
<defs>
<clipPath id="clip0_14_635">
<rect width="21" height="21" fill="white" transform="translate(0 0.5)"/>
</clipPath>
</defs>
</svg>
