<svg width="26" height="26" viewBox="0 0 26 26" fill="none" xmlns="http://www.w3.org/2000/svg">
<g id="envelope (1) 1" clip-path="url(#clip0_27_786)">
<path id="Vector" d="M20.2086 1.1932H5.46326C4.06709 1.19487 2.72858 1.75024 1.74133 2.73748C0.754092 3.72472 0.198724 5.06323 0.197052 6.4594L0.197052 19.0983C0.198724 20.4945 0.754092 21.833 1.74133 22.8202C2.72858 23.8075 4.06709 24.3628 5.46326 24.3645H20.2086C21.6048 24.3628 22.9433 23.8075 23.9305 22.8202C24.9178 21.833 25.4732 20.4945 25.4748 19.0983V6.4594C25.4732 5.06323 24.9178 3.72472 23.9305 2.73748C22.9433 1.75024 21.6048 1.19487 20.2086 1.1932ZM5.46326 3.29968H20.2086C20.8393 3.30092 21.4552 3.49086 21.977 3.84505C22.4988 4.19925 22.9027 4.70149 23.1366 5.28715L15.0709 13.3539C14.4773 13.9451 13.6737 14.277 12.8359 14.277C11.9982 14.277 11.1945 13.9451 10.601 13.3539L2.53525 5.28715C2.76922 4.70149 3.1731 4.19925 3.69491 3.84505C4.21673 3.49086 4.83259 3.30092 5.46326 3.29968ZM20.2086 22.258H5.46326C4.62525 22.258 3.82156 21.9251 3.22899 21.3326C2.63643 20.74 2.30353 19.9363 2.30353 19.0983V8.03926L9.11168 14.8432C10.1003 15.8293 11.4396 16.3831 12.8359 16.3831C14.2323 16.3831 15.5716 15.8293 16.5602 14.8432L23.3683 8.03926V19.0983C23.3683 19.9363 23.0355 20.74 22.4429 21.3326C21.8503 21.9251 21.0466 22.258 20.2086 22.258Z" fill="#9B9B9B"/>
</g>
<defs>
<clipPath id="clip0_27_786">
<rect width="25.2778" height="25.2778" fill="white" transform="translate(0.196854 0.13979)"/>
</clipPath>
</defs>
</svg>
