<svg width="20" height="20" viewBox="0 0 20 20" fill="none" xmlns="http://www.w3.org/2000/svg">
<g id="historico-vertical-do-retangulo 1" clip-path="url(#clip0_14_631)">
<path id="Vector" d="M15.8333 0H12.5C10.2025 0 8.33333 1.86917 8.33333 4.16667V15.8333C8.33333 18.1308 10.2025 20 12.5 20H15.8333C18.1308 20 20 18.1308 20 15.8333V4.16667C20 1.86917 18.1308 0 15.8333 0ZM18.3333 15.8333C18.3333 17.2117 17.2117 18.3333 15.8333 18.3333H12.5C11.1217 18.3333 10 17.2117 10 15.8333V4.16667C10 2.78833 11.1217 1.66667 12.5 1.66667H15.8333C17.2117 1.66667 18.3333 2.78833 18.3333 4.16667V15.8333ZM5.83333 3.33333V17.5C5.83333 17.96 5.46 18.3333 5 18.3333C4.54 18.3333 4.16667 17.96 4.16667 17.5V3.33333C4.16667 2.87333 4.54 2.5 5 2.5C5.46 2.5 5.83333 2.87333 5.83333 3.33333ZM1.66667 5.83333V15C1.66667 15.46 1.29333 15.8333 0.833333 15.8333C0.373333 15.8333 0 15.46 0 15V5.83333C0 5.37333 0.373333 5 0.833333 5C1.29333 5 1.66667 5.37333 1.66667 5.83333Z" fill="#CDCDCD"/>
</g>
<defs>
<clipPath id="clip0_14_631">
<rect width="20" height="20" fill="white"/>
</clipPath>
</defs>
</svg>
