<svg width="23" height="23" viewBox="0 0 23 23" fill="none" xmlns="http://www.w3.org/2000/svg">
<g id="sinal-de-bitcoin (1) 1" clip-path="url(#clip0_14_643)">
<path id="Vector" d="M16.7039 10.8771C17.6335 9.92833 18.2085 8.625 18.2085 7.1875C18.2085 4.44667 16.1002 2.185 13.4168 1.93583V0.958333C13.4168 0.43125 12.9856 0 12.4585 0C11.9314 0 11.5002 0.43125 11.5002 0.958333V1.91667H9.5835V0.958333C9.5835 0.43125 9.15225 0 8.62516 0C8.09808 0 7.66683 0.43125 7.66683 0.958333V1.91667C5.54891 1.91667 3.8335 3.63208 3.8335 5.75V17.25C3.8335 19.3679 5.54891 21.0833 7.66683 21.0833V22.0417C7.66683 22.5688 8.09808 23 8.62516 23C9.15225 23 9.5835 22.5688 9.5835 22.0417V21.0833H11.5002V22.0417C11.5002 22.5688 11.9314 23 12.4585 23C12.9856 23 13.4168 22.5688 13.4168 22.0417V21.0833H14.8543C17.7581 21.0833 20.1252 18.7162 20.1252 15.8125C20.1252 13.5508 18.6972 11.6246 16.7039 10.8771ZM5.75016 5.75C5.75016 4.69583 6.61266 3.83333 7.66683 3.83333H12.9377C14.7872 3.83333 16.2918 5.33792 16.2918 7.1875C16.2918 9.03708 14.7872 10.5417 12.9377 10.5417H5.75016V5.75ZM14.8543 19.1667H7.66683C6.61266 19.1667 5.75016 18.3042 5.75016 17.25V12.4583H14.8543C16.7039 12.4583 18.2085 13.9629 18.2085 15.8125C18.2085 17.6621 16.7039 19.1667 14.8543 19.1667Z" fill="#CDCDCD"/>
</g>
<defs>
<clipPath id="clip0_14_643">
<rect width="23" height="23" fill="white"/>
</clipPath>
</defs>
</svg>
