<svg width="28" height="29" viewBox="0 0 28 29" fill="none" xmlns="http://www.w3.org/2000/svg">
<g id="trancar (1) 1" clip-path="url(#clip0_27_790)">
<path id="Vector" d="M22.0279 10.508V8.87186C22.0279 6.73875 21.1805 4.693 19.6721 3.18465C18.1638 1.67631 16.118 0.828934 13.9849 0.828934C11.8518 0.828934 9.80606 1.67631 8.29771 3.18465C6.78937 4.693 5.942 6.73875 5.942 8.87186V10.508C4.91866 10.9546 4.04765 11.6898 3.43547 12.6236C2.8233 13.5573 2.49649 14.6493 2.49503 15.7658V22.6597C2.49685 24.1828 3.10271 25.643 4.1797 26.72C5.25669 27.797 6.71688 28.4029 8.23997 28.4047H19.7299C21.253 28.4029 22.7132 27.797 23.7902 26.72C24.8671 25.643 25.473 24.1828 25.4748 22.6597V15.7658C25.4734 14.6493 25.1466 13.5573 24.5344 12.6236C23.9222 11.6898 23.0512 10.9546 22.0279 10.508ZM8.23997 8.87186C8.23998 7.34821 8.84524 5.88696 9.92263 4.80957C11 3.73218 12.4613 3.12691 13.9849 3.12691C15.5086 3.12691 16.9698 3.73218 18.0472 4.80957C19.1246 5.88696 19.7299 7.34821 19.7299 8.87186V10.0209H8.23997V8.87186ZM23.1768 22.6597C23.1768 23.5739 22.8137 24.4507 22.1672 25.0971C21.5208 25.7436 20.6441 26.1067 19.7299 26.1067H8.23997C7.32578 26.1067 6.44903 25.7436 5.8026 25.0971C5.15617 24.4507 4.79301 23.5739 4.79301 22.6597V15.7658C4.79301 14.8516 5.15617 13.9749 5.8026 13.3284C6.44903 12.682 7.32578 12.3188 8.23997 12.3188H19.7299C20.6441 12.3188 21.5208 12.682 22.1672 13.3284C22.8137 13.9749 23.1768 14.8516 23.1768 15.7658V22.6597Z" fill="#CDCDCD"/>
<path id="Vector_2" d="M13.9849 16.9148C13.6802 16.9148 13.3879 17.0358 13.1725 17.2513C12.957 17.4668 12.8359 17.7591 12.8359 18.0638V20.3618C12.8359 20.6665 12.957 20.9587 13.1725 21.1742C13.3879 21.3897 13.6802 21.5108 13.9849 21.5108C14.2897 21.5108 14.5819 21.3897 14.7974 21.1742C15.0129 20.9587 15.1339 20.6665 15.1339 20.3618V18.0638C15.1339 17.7591 15.0129 17.4668 14.7974 17.2513C14.5819 17.0358 14.2897 16.9148 13.9849 16.9148Z" fill="#CDCDCD"/>
</g>
<defs>
<clipPath id="clip0_27_790">
<rect width="27.5758" height="27.5758" fill="white" transform="translate(0.196854 0.828972)"/>
</clipPath>
</defs>
</svg>
