<svg width="22" height="22" viewBox="0 0 22 22" fill="none" xmlns="http://www.w3.org/2000/svg">
<g id="exclamacao-hexagonal 1" clip-path="url(#clip0_14_639)">
<path id="Vector" d="M21.3952 8.69008L18.1869 3.19008C17.3683 1.78758 15.8521 0.916748 14.2278 0.916748H7.74514C6.12172 0.916748 4.60464 1.78758 3.78606 3.19008L0.578641 8.69008C-0.252776 10.1146 -0.252776 11.8847 0.578641 13.3092L3.78697 18.8092C4.60556 20.2117 6.12172 21.0825 7.74606 21.0825H14.2287C15.8521 21.0825 17.3692 20.2117 18.1878 18.8092L21.3961 13.3092C22.2276 11.8847 22.2266 10.1146 21.3952 8.69008ZM19.8112 12.3852L16.6029 17.8852C16.1116 18.7267 15.2022 19.2492 14.2278 19.2492H7.74514C6.77072 19.2492 5.86047 18.7267 5.37006 17.8852L2.16172 12.3852C1.66306 11.5299 1.66306 10.4684 2.16172 9.61408L5.37006 4.11408C5.86139 3.27258 6.77072 2.75008 7.74514 2.75008H14.2278C15.2022 2.75008 16.1125 3.27258 16.6029 4.11408L19.8112 9.61408C20.3099 10.4693 20.3099 11.5308 19.8112 12.3852ZM10.0826 11.4575V6.41583C10.0826 5.90892 10.4933 5.49917 10.9993 5.49917C11.5053 5.49917 11.916 5.90892 11.916 6.41583V11.4575C11.916 11.9644 11.5053 12.3742 10.9993 12.3742C10.4933 12.3742 10.0826 11.9644 10.0826 11.4575ZM12.3743 15.1242C12.3743 15.8832 11.7583 16.4992 10.9993 16.4992C10.2403 16.4992 9.62431 15.8832 9.62431 15.1242C9.62431 14.3652 10.2403 13.7492 10.9993 13.7492C11.7583 13.7492 12.3743 14.3652 12.3743 15.1242Z" fill="#CDCDCD"/>
</g>
<defs>
<clipPath id="clip0_14_639">
<rect width="22" height="22" fill="white"/>
</clipPath>
</defs>
</svg>
