<svg width="25" height="26" viewBox="0 0 25 26" fill="none" xmlns="http://www.w3.org/2000/svg">
<g id="procurar (3) 1" clip-path="url(#clip0_14_619)">
<path id="Vector" d="M19.6873 18.1679C21.3503 15.9454 22.1097 13.1754 21.8126 10.4156C21.5155 7.6557 20.1839 5.11084 18.0859 3.29326C15.9879 1.47569 13.2792 0.520358 10.5052 0.619569C7.73114 0.71878 5.09766 1.86517 3.13486 3.82797C1.17205 5.79078 0.0256652 8.42426 -0.073546 11.1983C-0.172757 13.9724 0.782577 16.681 2.60015 18.779C4.41772 20.877 6.96258 22.2086 9.72246 22.5057C12.4823 22.8029 15.2523 22.0435 17.4748 20.3804L22.7873 25.6929L24.9998 23.4846L19.6873 18.1679ZM10.9373 19.4429C9.39213 19.4429 7.88166 18.9847 6.5969 18.1263C5.31214 17.2678 4.31079 16.0477 3.71948 14.6201C3.12817 13.1926 2.97346 11.6217 3.27491 10.1063C3.57635 8.59079 4.32042 7.19873 5.41302 6.10614C6.50562 5.01354 7.89767 4.26947 9.41315 3.96802C10.9286 3.66658 12.4995 3.82129 13.927 4.4126C15.3546 5.00391 16.5747 6.00526 17.4331 7.29001C18.2916 8.57477 18.7498 10.0852 18.7498 11.6304C18.7479 13.7018 17.9241 15.6878 16.4594 17.1525C14.9947 18.6173 13.0087 19.441 10.9373 19.4429Z" fill="white"/>
</g>
<defs>
<clipPath id="clip0_14_619">
<rect width="25" height="25" fill="white" transform="translate(0 0.692871)"/>
</clipPath>
</defs>
</svg>
