<svg width="22" height="12" viewBox="0 0 22 12" fill="none" xmlns="http://www.w3.org/2000/svg">
<g id="ou" opacity="0.34">
<path d="M5.6084 0.269775C8.76081 0.269775 10.8765 2.55475 10.8765 6.08799C10.8765 9.62123 8.76081 11.9062 5.6084 11.9062C2.45599 11.9062 0.340271 9.62123 0.340271 6.08799C0.340271 2.55475 2.45599 0.269775 5.6084 0.269775ZM5.6084 10.4464C7.6818 10.4464 9.05701 8.81726 9.05701 6.08799C9.05701 3.37987 7.6818 1.75078 5.6084 1.75078C3.535 1.75078 2.13863 3.37987 2.13863 6.08799C2.13863 8.81726 3.535 10.4464 5.6084 10.4464Z" fill="#888888"/>
<path d="M20.023 10.0867H19.9596C19.2614 11.208 17.9708 11.9062 16.4263 11.9062C14.2683 11.9062 12.4699 10.6579 12.4699 7.94982V0.523662H14.2471V7.33626C14.2471 9.5366 15.0934 10.4252 16.8918 10.4252C18.4362 10.4252 19.9384 9.28272 19.9384 6.7227V0.523662H21.7156V11.6523H20.023V10.0867Z" fill="#888888"/>
</g>
</svg>
